<?xml version="1.0" encoding="utf-8"?>
<!-- Generator: Adobe Illustrator 17.0.0, SVG Export Plug-In . SVG Version: 6.00 Build 0)  -->
<!DOCTYPE svg PUBLIC "-//W3C//DTD SVG 1.1//EN" "http://www.w3.org/Graphics/SVG/1.1/DTD/svg11.dtd">
<svg version="1.1" id="Layer_1" xmlns="http://www.w3.org/2000/svg" xmlns:xlink="http://www.w3.org/1999/xlink" x="0px" y="0px"
	 width="128.001px" height="128px" viewBox="-32 -32 128.001 128" enable-background="new -32 -32 128.001 128"
	 xml:space="preserve">
<path fill="#1E5055" d="M84.342,18.676c-1.766-0.63-6.322-1.54-10.482,3.564c-2.472,3.036-3.98,7.662-5.576,12.558
	c-1.248,3.832-3.434,10.538-5.538,12.206c-2.634-5.05-4.352-23.362-5.208-32.498C57.046,9.26,56.582,4.304,56.046,0.69
	c-0.584-3.938-1.466-9.888-6.776-9.888c-5.798,0-7.414,5.87-12.674,28.314c-0.732,3.124-1.594,6.8-2.4,9.976
	c-1.984-3.47-4.128-6.336-7.728-6.336c-5.272,0-6.044,4.724-7.732,15.076c-0.502,3.07-1.316,8.074-2.282,12.122
	c-0.68-3.888-1.27-8.686-1.728-12.426C12.664,20.724,11.3,9.624,3.196,9.624c-7.712,0-10.162,9.312-12.758,19.17
	c-0.988,3.75-2.618,9.942-3.92,11.498c-0.266,0.072-0.45,0.016-0.746-0.18c-1.382-0.914-2.872-3.894-2.872-7.118
	c0-27.6,22.454-50.054,50.054-50.054c15.428,0,28.852,5.654,36.934,15.516l-7.156,5.428l9.652,1.596l9.652,1.596L83.1-2.65
	l1.064-9.726L77.82-7.564C67.86-19.914,51.526-27,32.952-27c-33.084,0-60,26.916-60,60c0,6.322,2.948,12.516,7.332,15.416
	c3.184,2.106,6.876,2.436,10.4,0.938c5.21-2.22,7.138-9.542,9.37-18.02c0.63-2.396,1.512-5.748,2.424-8.35
	c0.986,4.456,1.81,11.17,2.374,15.764C6.83,54.86,8.136,65.504,15.888,65.504c8.41,0,10.476-12.66,12.664-26.062
	c0.004-0.028,0.008-0.056,0.014-0.084c1.816,2.9,3.884,5.106,7.07,5.106c5.236,0,6.166-3.974,10.644-23.07
	c0.404-1.726,0.872-3.724,1.372-5.798C50.08,41.48,52.08,57.338,61.82,57.338c9.582,0,13.098-10.788,15.922-19.456
	c1.164-3.568,2.478-7.604,3.756-9.264c0.722,1.002,1.508,2.894,1.508,4.382c0,27.6-22.454,50.054-50.054,50.054
	c-12.74,0-24.776-4.758-34.062-13.404l6.664-5.2l-9.674-1.464l-9.674-1.464l-0.93,9.738L-15.656,81l6.612-5.16
	C2.236,86.906,17.146,93,32.952,93c33.084,0,60-26.916,60-60C92.952,27.586,89.66,20.57,84.342,18.676z"/>
</svg>
