<?xml version="1.0" encoding="utf-8"?>
<!-- Generator: Adobe Illustrator 17.0.0, SVG Export Plug-In . SVG Version: 6.00 Build 0)  -->
<!DOCTYPE svg PUBLIC "-//W3C//DTD SVG 1.1//EN" "http://www.w3.org/Graphics/SVG/1.1/DTD/svg11.dtd">
<svg version="1.1" id="Layer_1" xmlns="http://www.w3.org/2000/svg" xmlns:xlink="http://www.w3.org/1999/xlink" x="0px" y="0px"
	 width="128px" height="128px" viewBox="0 0 128 128" enable-background="new 0 0 128 128" xml:space="preserve">
<path fill="#1E5055" d="M117.436,49.461c-1.854-0.661-6.638-1.617-11.005,3.743c-2.596,3.187-4.18,8.044-5.855,13.187
	c-1.311,4.023-3.605,11.066-5.814,12.817c-2.766-5.303-4.57-24.53-5.469-34.122c-0.517-5.509-1.005-10.712-1.567-14.506
	c-0.613-4.135-1.54-10.383-7.115-10.383c-6.088,0-7.784,6.164-13.308,29.731c-0.768,3.28-1.673,7.139-2.52,10.476
	c-2.084-3.643-4.334-6.654-8.115-6.654c-5.535,0-6.345,4.961-8.119,15.831c-0.526,3.224-1.383,8.477-2.397,12.728
	c-0.715-4.082-1.333-9.121-1.815-13.047C42.171,51.618,40.74,39.962,32.23,39.962c-8.097,0-10.67,9.777-13.395,20.129
	c-1.037,3.938-2.749,10.44-4.117,12.073c-0.279,0.076-0.473,0.016-0.783-0.189c-1.451-0.959-3.015-4.089-3.015-7.475
	c0-28.98,23.577-52.557,52.557-52.557c16.199,0,30.294,5.936,38.78,16.291l-7.513,5.698l10.135,1.676l10.135,1.676l1.118-10.211
	l1.118-10.211l-6.662,5.053C100.129,8.941,82.978,1.5,63.477,1.5c-34.738,0-63,28.262-63,63c0,6.638,3.094,13.143,7.699,16.187
	c3.343,2.211,7.22,2.558,10.92,0.984c5.471-2.33,7.494-10.019,9.838-18.922c0.662-2.516,1.588-6.035,2.545-8.767
	c1.034,4.679,1.899,11.729,2.492,16.552c2.076,16.917,3.449,28.093,11.588,28.093c8.831,0,11-13.292,13.296-27.365
	c0.005-0.03,0.009-0.059,0.014-0.089c1.907,3.045,4.079,5.362,7.424,5.362c5.498,0,6.475-4.173,11.176-24.223
	c0.425-1.813,0.916-3.909,1.44-6.089c2.551,27.181,4.651,43.831,14.878,43.831c10.062,0,13.752-11.326,16.717-20.428
	c1.221-3.747,2.602-7.984,3.943-9.727c0.759,1.051,1.584,3.038,1.584,4.601c0,28.979-23.577,52.556-52.556,52.556
	c-13.378,0-26.014-4.996-35.766-14.075l6.996-5.459l-10.157-1.537l-10.157-1.537l-0.978,10.226l-0.978,10.226l6.943-5.417
	C31.225,121.101,46.88,127.5,63.477,127.5c34.738,0,63-28.261,63-63C126.476,58.815,123.02,51.448,117.436,49.461z"/>
</svg>
