<?xml version="1.0" encoding="utf-8"?>
<!-- Generator: Adobe Illustrator 17.0.0, SVG Export Plug-In . SVG Version: 6.00 Build 0)  -->
<!DOCTYPE svg PUBLIC "-//W3C//DTD SVG 1.1//EN" "http://www.w3.org/Graphics/SVG/1.1/DTD/svg11.dtd">
<svg version="1.1" id="Layer_1" xmlns="http://www.w3.org/2000/svg" xmlns:xlink="http://www.w3.org/1999/xlink" x="0px" y="0px"
	 width="290px" height="217px" viewBox="0 0 290 217" enable-background="new 0 0 290 217" xml:space="preserve">
<g>
	<g>
		<g opacity="0.3">
			<path fill="#010101" d="M88.377,70.481h-1.465c-3.216,0-5.699-0.855-7.448-2.564c-1.75-1.71-2.625-4.172-2.625-7.387V49.296
				c0-3.215,0.875-5.678,2.625-7.387c1.75-1.709,4.233-2.564,7.448-2.564h14.102c0.895,0,1.343,0.428,1.343,1.282v28.571
				c0,0.855-0.448,1.283-1.343,1.283h-5.128c-0.855,0-1.282-0.428-1.282-1.283v-2.015H94.36c-0.448,1.099-1.242,1.923-2.381,2.473
				C90.84,70.206,89.639,70.481,88.377,70.481z M94.604,59.125V46.732c0-0.447-0.244-0.672-0.733-0.672h-5.738
				c-1.303,0-2.219,0.275-2.748,0.824c-0.529,0.55-0.794,1.475-0.794,2.777v10.501c0,1.303,0.265,2.229,0.794,2.778
				c0.529,0.55,1.445,0.824,2.748,0.824h2.259C93.2,63.765,94.604,62.218,94.604,59.125z"/>
			<path fill="#010101" d="M120.306,70.481h-2.015c-3.134,0-5.505-0.855-7.112-2.564c-1.608-1.71-2.411-4.172-2.411-7.387V40.627
				c0-0.854,0.427-1.282,1.282-1.282h5.189c0.855,0,1.282,0.428,1.282,1.282v19.536c0,1.303,0.275,2.229,0.824,2.778
				c0.55,0.55,1.455,0.824,2.717,0.824h2.259c2.809,0,4.213-1.547,4.213-4.64V40.627c0-0.854,0.428-1.282,1.282-1.282h5.128
				c0.895,0,1.343,0.428,1.343,1.282v28.571c0,0.855-0.449,1.283-1.343,1.283h-5.128c-0.855,0-1.282-0.428-1.282-1.283v-2.015
				h-0.244c-0.449,1.099-1.242,1.923-2.381,2.473C122.768,70.206,121.567,70.481,120.306,70.481z"/>
			<path fill="#010101" d="M152.418,70.481h-2.503c-3.135,0-5.505-0.855-7.113-2.564c-1.608-1.71-2.411-4.172-2.411-7.387V49.296
				c0-3.215,0.803-5.678,2.411-7.387c1.608-1.709,3.978-2.564,7.113-2.564h2.503c1.261,0,2.462,0.275,3.602,0.824
				c1.139,0.55,1.933,1.374,2.381,2.472h0.244V28.845c0-0.855,0.428-1.283,1.282-1.283h5.189c0.855,0,1.282,0.428,1.282,1.283
				v40.353c0,0.855-0.428,1.283-1.282,1.283h-5.189c-0.855,0-1.282-0.428-1.282-1.283v-2.015h-0.244
				c-0.449,1.099-1.242,1.923-2.381,2.473C154.88,70.206,153.679,70.481,152.418,70.481z M158.645,59.125v-8.424
				c0-3.093-1.404-4.64-4.212-4.64h-2.747c-1.303,0-2.219,0.275-2.748,0.824c-0.529,0.55-0.794,1.475-0.794,2.777v10.501
				c0,1.303,0.265,2.229,0.794,2.778c0.529,0.55,1.445,0.824,2.748,0.824h2.747C157.241,63.765,158.645,62.218,158.645,59.125z"/>
			<path fill="#010101" d="M173.418,34.095v-5.312c0-0.813,0.406-1.221,1.221-1.221h5.312c0.814,0,1.221,0.388,1.221,1.161v5.372
				c0,0.814-0.408,1.221-1.221,1.221h-5.312C173.824,35.316,173.418,34.909,173.418,34.095z M173.418,69.198V40.627
				c0-0.854,0.406-1.282,1.221-1.282h5.251c0.855,0,1.282,0.428,1.282,1.282v28.571c0,0.53-0.092,0.876-0.275,1.039
				c-0.184,0.163-0.499,0.244-0.946,0.244h-5.25C173.845,70.481,173.418,70.053,173.418,69.198z"/>
			<path fill="#010101" d="M203.088,70.481h-5.433c-3.216,0-5.699-0.855-7.448-2.564c-1.75-1.71-2.625-4.172-2.625-7.387V49.296
				c0-3.215,0.875-5.678,2.625-7.387c1.75-1.709,4.233-2.564,7.448-2.564h5.433c3.175,0,5.647,0.865,7.418,2.595
				c1.771,1.73,2.655,4.182,2.655,7.356V60.53c0,3.174-0.885,5.627-2.655,7.356C208.735,69.616,206.263,70.481,203.088,70.481z
				 M198.814,63.826h3.114c1.302,0,2.228-0.265,2.778-0.794c0.55-0.528,0.824-1.445,0.824-2.748V49.54
				c0-1.302-0.275-2.218-0.824-2.747c-0.55-0.529-1.476-0.795-2.778-0.795h-3.114c-1.303,0-2.219,0.266-2.747,0.795
				c-0.53,0.529-0.794,1.445-0.794,2.747v10.745c0,1.303,0.264,2.22,0.794,2.748C196.596,63.561,197.512,63.826,198.814,63.826z"/>
		</g>
		<g>
			<path fill="#205156" d="M88.377,68.481h-1.465c-3.216,0-5.699-0.855-7.448-2.564c-1.75-1.71-2.625-4.172-2.625-7.387V47.296
				c0-3.215,0.875-5.678,2.625-7.387c1.75-1.709,4.233-2.564,7.448-2.564h14.102c0.895,0,1.343,0.428,1.343,1.282v28.571
				c0,0.855-0.448,1.283-1.343,1.283h-5.128c-0.855,0-1.282-0.428-1.282-1.283v-2.015H94.36c-0.448,1.099-1.242,1.923-2.381,2.473
				C90.84,68.206,89.639,68.481,88.377,68.481z M94.604,57.125V44.732c0-0.447-0.244-0.672-0.733-0.672h-5.738
				c-1.303,0-2.219,0.275-2.748,0.824c-0.529,0.55-0.794,1.475-0.794,2.777v10.501c0,1.303,0.265,2.229,0.794,2.778
				c0.529,0.55,1.445,0.824,2.748,0.824h2.259C93.2,61.765,94.604,60.218,94.604,57.125z"/>
			<path fill="#205156" d="M120.306,68.481h-2.015c-3.134,0-5.505-0.855-7.112-2.564c-1.608-1.71-2.411-4.172-2.411-7.387V38.627
				c0-0.854,0.427-1.282,1.282-1.282h5.189c0.855,0,1.282,0.428,1.282,1.282v19.536c0,1.303,0.275,2.229,0.824,2.778
				c0.55,0.55,1.455,0.824,2.717,0.824h2.259c2.809,0,4.213-1.547,4.213-4.64V38.627c0-0.854,0.428-1.282,1.282-1.282h5.128
				c0.895,0,1.343,0.428,1.343,1.282v28.571c0,0.855-0.449,1.283-1.343,1.283h-5.128c-0.855,0-1.282-0.428-1.282-1.283v-2.015
				h-0.244c-0.449,1.099-1.242,1.923-2.381,2.473C122.768,68.206,121.567,68.481,120.306,68.481z"/>
			<path fill="#205156" d="M152.418,68.481h-2.503c-3.135,0-5.505-0.855-7.113-2.564c-1.608-1.71-2.411-4.172-2.411-7.387V47.296
				c0-3.215,0.803-5.678,2.411-7.387c1.608-1.709,3.978-2.564,7.113-2.564h2.503c1.261,0,2.462,0.275,3.602,0.824
				c1.139,0.55,1.933,1.374,2.381,2.472h0.244V26.845c0-0.855,0.428-1.283,1.282-1.283h5.189c0.855,0,1.282,0.428,1.282,1.283
				v40.353c0,0.855-0.428,1.283-1.282,1.283h-5.189c-0.855,0-1.282-0.428-1.282-1.283v-2.015h-0.244
				c-0.449,1.099-1.242,1.923-2.381,2.473C154.88,68.206,153.679,68.481,152.418,68.481z M158.645,57.125v-8.424
				c0-3.093-1.404-4.64-4.212-4.64h-2.747c-1.303,0-2.219,0.275-2.748,0.824c-0.529,0.55-0.794,1.475-0.794,2.777v10.501
				c0,1.303,0.265,2.229,0.794,2.778c0.529,0.55,1.445,0.824,2.748,0.824h2.747C157.241,61.765,158.645,60.218,158.645,57.125z"/>
			<path fill="#205156" d="M173.418,32.095v-5.312c0-0.813,0.406-1.221,1.221-1.221h5.312c0.814,0,1.221,0.388,1.221,1.161v5.372
				c0,0.814-0.408,1.221-1.221,1.221h-5.312C173.824,33.316,173.418,32.909,173.418,32.095z M173.418,67.198V38.627
				c0-0.854,0.406-1.282,1.221-1.282h5.251c0.855,0,1.282,0.428,1.282,1.282v28.571c0,0.53-0.092,0.876-0.275,1.039
				c-0.184,0.163-0.499,0.244-0.946,0.244h-5.25C173.845,68.481,173.418,68.053,173.418,67.198z"/>
			<path fill="#205156" d="M203.088,68.481h-5.433c-3.216,0-5.699-0.855-7.448-2.564c-1.75-1.71-2.625-4.172-2.625-7.387V47.296
				c0-3.215,0.875-5.678,2.625-7.387c1.75-1.709,4.233-2.564,7.448-2.564h5.433c3.175,0,5.647,0.865,7.418,2.595
				c1.771,1.73,2.655,4.182,2.655,7.356V58.53c0,3.174-0.885,5.627-2.655,7.356C208.735,67.616,206.263,68.481,203.088,68.481z
				 M198.814,61.826h3.114c1.302,0,2.228-0.265,2.778-0.794c0.55-0.528,0.824-1.445,0.824-2.748V47.54
				c0-1.302-0.275-2.218-0.824-2.747c-0.55-0.529-1.476-0.795-2.778-0.795h-3.114c-1.303,0-2.219,0.266-2.747,0.795
				c-0.53,0.529-0.794,1.445-0.794,2.747v10.745c0,1.303,0.264,2.22,0.794,2.748C196.596,61.561,197.512,61.826,198.814,61.826z"/>
		</g>
	</g>
	<g>
		<g opacity="0.3">
			<path fill="#010101" d="M46.162,188.004v4.213c0,0.448-0.092,0.763-0.275,0.946c-0.184,0.184-0.519,0.275-1.007,0.275h-9.096
				c-3.216,0-5.699-0.855-7.448-2.564c-1.75-1.709-2.625-4.172-2.625-7.387v-11.234c0-3.214,0.875-5.678,2.625-7.387
				c1.75-1.709,4.233-2.564,7.448-2.564h9.096c0.855,0,1.282,0.428,1.282,1.283v4.212c0,0.449-0.092,0.764-0.275,0.946
				c-0.184,0.184-0.519,0.275-1.007,0.275h-7.875c-1.262,0-2.167,0.275-2.717,0.824s-0.824,1.476-0.824,2.778v10.501
				c0,1.303,0.275,2.228,0.824,2.777s1.455,0.824,2.717,0.824h7.875C45.735,186.723,46.162,187.15,46.162,188.004z"/>
			<path fill="#010101" d="M66.308,193.438h-5.433c-3.216,0-5.699-0.855-7.448-2.564c-1.75-1.709-2.625-4.172-2.625-7.387v-11.234
				c0-3.214,0.875-5.678,2.625-7.387c1.75-1.709,4.233-2.564,7.448-2.564h5.433c3.175,0,5.647,0.865,7.418,2.595
				c1.771,1.731,2.655,4.182,2.655,7.356v11.234c0,3.174-0.885,5.627-2.655,7.356C71.955,192.574,69.483,193.438,66.308,193.438z
				 M62.034,186.783h3.114c1.302,0,2.228-0.263,2.778-0.794c0.55-0.528,0.824-1.444,0.824-2.747v-10.746
				c0-1.302-0.275-2.218-0.824-2.747c-0.55-0.529-1.476-0.794-2.778-0.794h-3.114c-1.303,0-2.219,0.265-2.747,0.794
				c-0.53,0.529-0.794,1.445-0.794,2.747v10.746c0,1.303,0.264,2.219,0.794,2.747C59.816,186.52,60.732,186.783,62.034,186.783z"/>
			<path fill="#010101" d="M88.957,193.438h-5.189c-0.855,0-1.282-0.428-1.282-1.282v-28.571c0-0.855,0.428-1.283,1.282-1.283h5.189
				c0.855,0,1.282,0.428,1.282,1.283v2.015h0.244c0.489-0.977,1.313-1.771,2.473-2.382c1.16-0.61,2.492-0.916,3.998-0.916h1.71
				c3.541,0,6.084,1.303,7.631,3.907c1.383-2.604,3.764-3.907,7.143-3.907h1.77c3.134,0,5.504,0.855,7.113,2.564
				c1.607,1.709,2.411,4.173,2.411,7.387v19.903c0,0.854-0.428,1.282-1.282,1.282h-5.189c-0.855,0-1.282-0.428-1.282-1.282V172.62
				c0-1.302-0.265-2.229-0.794-2.778c-0.53-0.55-1.445-0.824-2.747-0.824h-1.527c-2.808,0-4.212,1.568-4.212,4.701v18.438
				c0,0.854-0.449,1.282-1.343,1.282h-5.128c-0.855,0-1.282-0.428-1.282-1.282V172.62c0-1.302-0.275-2.229-0.824-2.778
				s-1.476-0.824-2.778-0.824h-1.892c-2.809,0-4.213,1.547-4.213,4.64v18.498C90.239,193.01,89.811,193.438,88.957,193.438z"/>
			<path fill="#010101" d="M137.674,193.438h-5.189c-0.855,0-1.282-0.428-1.282-1.282v-28.571c0-0.855,0.428-1.283,1.282-1.283
				h5.189c0.855,0,1.282,0.428,1.282,1.283v2.015h0.244c0.489-0.977,1.313-1.771,2.473-2.382c1.16-0.61,2.492-0.916,3.998-0.916
				h1.71c3.541,0,6.084,1.303,7.631,3.907c1.383-2.604,3.764-3.907,7.143-3.907h1.77c3.134,0,5.504,0.855,7.113,2.564
				c1.607,1.709,2.411,4.173,2.411,7.387v19.903c0,0.854-0.428,1.282-1.282,1.282h-5.189c-0.855,0-1.282-0.428-1.282-1.282V172.62
				c0-1.302-0.265-2.229-0.794-2.778c-0.53-0.55-1.445-0.824-2.747-0.824h-1.527c-2.808,0-4.212,1.568-4.212,4.701v18.438
				c0,0.854-0.449,1.282-1.343,1.282h-5.128c-0.855,0-1.282-0.428-1.282-1.282V172.62c0-1.302-0.275-2.229-0.824-2.778
				s-1.476-0.824-2.778-0.824h-1.892c-2.809,0-4.213,1.547-4.213,4.64v18.498C138.956,193.01,138.529,193.438,137.674,193.438z"/>
			<path fill="#010101" d="M194.816,193.438h-5.433c-3.216,0-5.699-0.855-7.448-2.564c-1.75-1.709-2.625-4.172-2.625-7.387v-11.234
				c0-3.214,0.875-5.678,2.625-7.387c1.75-1.709,4.233-2.564,7.448-2.564h5.433c3.175,0,5.647,0.865,7.418,2.595
				c1.771,1.731,2.655,4.182,2.655,7.356v11.234c0,3.174-0.885,5.627-2.655,7.356C200.463,192.574,197.991,193.438,194.816,193.438z
				 M190.542,186.783h3.114c1.302,0,2.228-0.263,2.778-0.794c0.55-0.528,0.824-1.444,0.824-2.747v-10.746
				c0-1.302-0.275-2.218-0.824-2.747c-0.55-0.529-1.476-0.794-2.778-0.794h-3.114c-1.303,0-2.219,0.265-2.747,0.794
				c-0.53,0.529-0.794,1.445-0.794,2.747v10.746c0,1.303,0.264,2.219,0.794,2.747C188.324,186.52,189.24,186.783,190.542,186.783z"
				/>
			<path fill="#010101" d="M217.465,193.438h-5.189c-0.855,0-1.282-0.428-1.282-1.282v-28.571c0-0.855,0.428-1.283,1.282-1.283
				h5.189c0.855,0,1.282,0.428,1.282,1.283v2.015h0.244c0.895-2.198,2.89-3.297,5.983-3.297h1.954c6.389,0,9.584,3.318,9.584,9.951
				v19.903c0,0.854-0.448,1.282-1.343,1.282h-5.128c-0.855,0-1.282-0.428-1.282-1.282V172.62c0-1.302-0.275-2.229-0.824-2.778
				c-0.55-0.55-1.476-0.824-2.778-0.824h-2.198c-2.809,0-4.213,1.547-4.213,4.64v18.498
				C218.747,193.01,218.319,193.438,217.465,193.438z"/>
			<path fill="#010101" d="M254.705,193.438h-11.6c-0.815,0-1.221-0.428-1.221-1.282v-3.907c0-0.448,0.081-0.764,0.244-0.946
				c0.162-0.184,0.489-0.275,0.977-0.275h10.196c1.994,0,2.992-0.611,2.992-1.832v-0.306c0-0.976-0.835-1.912-2.503-2.808
				l-6.044-3.358c-2.076-1.058-3.602-2.197-4.579-3.418c-0.977-1.221-1.466-2.788-1.466-4.702c0-2.848,0.753-4.945,2.259-6.288
				c1.505-1.343,3.866-2.015,7.082-2.015h10.195c0.814,0,1.221,0.428,1.221,1.283v3.968c0,0.448-0.082,0.763-0.244,0.946
				c-0.163,0.184-0.489,0.275-0.977,0.275h-8.486c-1.995,0-2.991,0.51-2.991,1.527v0.305c0,0.896,0.875,1.812,2.625,2.748
				l6.166,3.663c2.116,1.14,3.602,2.31,4.457,3.51c0.855,1.201,1.282,2.777,1.282,4.731
				C264.29,190.712,261.094,193.438,254.705,193.438z"/>
		</g>
		<g>
			<path fill="#205156" d="M46.162,186.004v4.213c0,0.448-0.092,0.763-0.275,0.946c-0.184,0.184-0.519,0.275-1.007,0.275h-9.096
				c-3.216,0-5.699-0.855-7.448-2.564c-1.75-1.709-2.625-4.172-2.625-7.387v-11.234c0-3.214,0.875-5.678,2.625-7.387
				c1.75-1.709,4.233-2.564,7.448-2.564h9.096c0.855,0,1.282,0.428,1.282,1.283v4.212c0,0.449-0.092,0.764-0.275,0.946
				c-0.184,0.184-0.519,0.275-1.007,0.275h-7.875c-1.262,0-2.167,0.275-2.717,0.824s-0.824,1.476-0.824,2.778v10.501
				c0,1.303,0.275,2.228,0.824,2.777s1.455,0.824,2.717,0.824h7.875C45.735,184.723,46.162,185.15,46.162,186.004z"/>
			<path fill="#205156" d="M66.308,191.438h-5.433c-3.216,0-5.699-0.855-7.448-2.564c-1.75-1.709-2.625-4.172-2.625-7.387v-11.234
				c0-3.214,0.875-5.678,2.625-7.387c1.75-1.709,4.233-2.564,7.448-2.564h5.433c3.175,0,5.647,0.865,7.418,2.595
				c1.771,1.731,2.655,4.182,2.655,7.356v11.234c0,3.174-0.885,5.627-2.655,7.356C71.955,190.574,69.483,191.438,66.308,191.438z
				 M62.034,184.783h3.114c1.302,0,2.228-0.263,2.778-0.794c0.55-0.528,0.824-1.444,0.824-2.747v-10.746
				c0-1.302-0.275-2.218-0.824-2.747c-0.55-0.529-1.476-0.794-2.778-0.794h-3.114c-1.303,0-2.219,0.265-2.747,0.794
				c-0.53,0.529-0.794,1.445-0.794,2.747v10.746c0,1.303,0.264,2.219,0.794,2.747C59.816,184.52,60.732,184.783,62.034,184.783z"/>
			<path fill="#205156" d="M88.957,191.438h-5.189c-0.855,0-1.282-0.428-1.282-1.282v-28.571c0-0.855,0.428-1.283,1.282-1.283h5.189
				c0.855,0,1.282,0.428,1.282,1.283v2.015h0.244c0.489-0.977,1.313-1.771,2.473-2.382c1.16-0.61,2.492-0.916,3.998-0.916h1.71
				c3.541,0,6.084,1.303,7.631,3.907c1.383-2.604,3.764-3.907,7.143-3.907h1.77c3.134,0,5.504,0.855,7.113,2.564
				c1.607,1.709,2.411,4.173,2.411,7.387v19.903c0,0.854-0.428,1.282-1.282,1.282h-5.189c-0.855,0-1.282-0.428-1.282-1.282V170.62
				c0-1.302-0.265-2.229-0.794-2.778c-0.53-0.55-1.445-0.824-2.747-0.824h-1.527c-2.808,0-4.212,1.568-4.212,4.701v18.438
				c0,0.854-0.449,1.282-1.343,1.282h-5.128c-0.855,0-1.282-0.428-1.282-1.282V170.62c0-1.302-0.275-2.229-0.824-2.778
				s-1.476-0.824-2.778-0.824h-1.892c-2.809,0-4.213,1.547-4.213,4.64v18.498C90.239,191.01,89.811,191.438,88.957,191.438z"/>
			<path fill="#205156" d="M137.674,191.438h-5.189c-0.855,0-1.282-0.428-1.282-1.282v-28.571c0-0.855,0.428-1.283,1.282-1.283
				h5.189c0.855,0,1.282,0.428,1.282,1.283v2.015h0.244c0.489-0.977,1.313-1.771,2.473-2.382c1.16-0.61,2.492-0.916,3.998-0.916
				h1.71c3.541,0,6.084,1.303,7.631,3.907c1.383-2.604,3.764-3.907,7.143-3.907h1.77c3.134,0,5.504,0.855,7.113,2.564
				c1.607,1.709,2.411,4.173,2.411,7.387v19.903c0,0.854-0.428,1.282-1.282,1.282h-5.189c-0.855,0-1.282-0.428-1.282-1.282V170.62
				c0-1.302-0.265-2.229-0.794-2.778c-0.53-0.55-1.445-0.824-2.747-0.824h-1.527c-2.808,0-4.212,1.568-4.212,4.701v18.438
				c0,0.854-0.449,1.282-1.343,1.282h-5.128c-0.855,0-1.282-0.428-1.282-1.282V170.62c0-1.302-0.275-2.229-0.824-2.778
				s-1.476-0.824-2.778-0.824h-1.892c-2.809,0-4.213,1.547-4.213,4.64v18.498C138.956,191.01,138.529,191.438,137.674,191.438z"/>
			<path fill="#205156" d="M194.816,191.438h-5.433c-3.216,0-5.699-0.855-7.448-2.564c-1.75-1.709-2.625-4.172-2.625-7.387v-11.234
				c0-3.214,0.875-5.678,2.625-7.387c1.75-1.709,4.233-2.564,7.448-2.564h5.433c3.175,0,5.647,0.865,7.418,2.595
				c1.771,1.731,2.655,4.182,2.655,7.356v11.234c0,3.174-0.885,5.627-2.655,7.356C200.463,190.574,197.991,191.438,194.816,191.438z
				 M190.542,184.783h3.114c1.302,0,2.228-0.263,2.778-0.794c0.55-0.528,0.824-1.444,0.824-2.747v-10.746
				c0-1.302-0.275-2.218-0.824-2.747c-0.55-0.529-1.476-0.794-2.778-0.794h-3.114c-1.303,0-2.219,0.265-2.747,0.794
				c-0.53,0.529-0.794,1.445-0.794,2.747v10.746c0,1.303,0.264,2.219,0.794,2.747C188.324,184.52,189.24,184.783,190.542,184.783z"
				/>
			<path fill="#205156" d="M217.465,191.438h-5.189c-0.855,0-1.282-0.428-1.282-1.282v-28.571c0-0.855,0.428-1.283,1.282-1.283
				h5.189c0.855,0,1.282,0.428,1.282,1.283v2.015h0.244c0.895-2.198,2.89-3.297,5.983-3.297h1.954c6.389,0,9.584,3.318,9.584,9.951
				v19.903c0,0.854-0.448,1.282-1.343,1.282h-5.128c-0.855,0-1.282-0.428-1.282-1.282V170.62c0-1.302-0.275-2.229-0.824-2.778
				c-0.55-0.55-1.476-0.824-2.778-0.824h-2.198c-2.809,0-4.213,1.547-4.213,4.64v18.498
				C218.747,191.01,218.319,191.438,217.465,191.438z"/>
			<path fill="#205156" d="M254.705,191.438h-11.6c-0.815,0-1.221-0.428-1.221-1.282v-3.907c0-0.448,0.081-0.764,0.244-0.946
				c0.162-0.184,0.489-0.275,0.977-0.275h10.196c1.994,0,2.992-0.611,2.992-1.832v-0.306c0-0.976-0.835-1.912-2.503-2.808
				l-6.044-3.358c-2.076-1.058-3.602-2.197-4.579-3.418c-0.977-1.221-1.466-2.788-1.466-4.702c0-2.848,0.753-4.945,2.259-6.288
				c1.505-1.343,3.866-2.015,7.082-2.015h10.195c0.814,0,1.221,0.428,1.221,1.283v3.968c0,0.448-0.082,0.763-0.244,0.946
				c-0.163,0.184-0.489,0.275-0.977,0.275h-8.486c-1.995,0-2.991,0.51-2.991,1.527v0.305c0,0.896,0.875,1.812,2.625,2.748
				l6.166,3.663c2.116,1.14,3.602,2.31,4.457,3.51c0.855,1.201,1.282,2.777,1.282,4.731
				C264.29,188.712,261.094,191.438,254.705,191.438z"/>
		</g>
	</g>
	<g>
		<g opacity="0.3">
			<path fill="#010101" d="M88.864,127.5c-0.692,0-1.571-0.263-1.95-1.965l-2.559-11.466l-2.707,7.606
				c-0.566,1.583-1.688,1.872-2.144,1.917c-0.46,0.048-1.611,0.001-2.475-1.441l-0.829-1.377l-2.638,3.682
				c-0.667,0.936-1.601,1.4-2.565,1.281c-0.961-0.122-1.748-0.805-2.16-1.876l-3.28-8.523l-2.596,4.701
				c-0.5,0.9-1.341,1.54-2.309,1.758c-0.946,0.21-1.91,0.014-2.713-0.557l-3.904-2.658c-0.542-0.387-1.84-0.685-2.922-0.685
				l-30.085-0.913c-0.365,0-0.661-0.296-0.661-0.661s0.296-0.661,0.661-0.661l30.085-0.913c1.37,0,3.429,0.327,4.723,1.251
				l3.904,2.657c0.115,0.082,0.176,0.08,0.219,0.069c0.094-0.022,0.184-0.098,0.247-0.212l3.207-5.808
				c0.826-1.484,1.979-1.573,2.439-1.537c0.456,0.032,1.581,0.275,2.183,1.84l3.441,8.94l2.332-3.255
				c0.634-0.888,1.56-1.364,2.524-1.337c0.969,0.039,1.847,0.598,2.408,1.533l0.356,0.593l3.423-9.585
				c0.599-1.68,1.655-1.865,2.212-1.836c0.57,0.035,1.582,0.355,1.969,2.096l1.985,8.936l2.521-15.129
				c0.294-1.76,1.188-2.156,1.887-2.178c0.689-0.003,1.616,0.318,2.019,2.056l2.214,9.703c0.123,0.531,0.752,0.955,1.032,0.955
				h1.863c0.87,0,1.575,0.631,1.575,1.5s-0.705,1.5-1.575,1.5H98.36c-2.03,0-3.71-1.632-4.103-3.328l-0.915-3.96l-2.537,15.168
				c-0.295,1.765-1.19,2.121-1.889,2.121C88.9,127.5,88.882,127.5,88.864,127.5z"/>
		</g>
		<g>
			<path fill="#205156" d="M88.864,126.5c-0.692,0-1.571-0.263-1.95-1.965l-2.559-11.466l-2.707,7.606
				c-0.566,1.583-1.688,1.872-2.144,1.917c-0.46,0.048-1.611,0.001-2.475-1.441l-0.829-1.377l-2.638,3.682
				c-0.667,0.936-1.601,1.4-2.565,1.281c-0.961-0.122-1.748-0.805-2.16-1.876l-3.28-8.523l-2.596,4.701
				c-0.5,0.9-1.341,1.54-2.309,1.758c-0.946,0.21-1.91,0.014-2.713-0.557l-3.904-2.658c-0.542-0.387-1.84-0.685-2.922-0.685
				l-30.085-0.913c-0.365,0-0.661-0.296-0.661-0.661s0.296-0.661,0.661-0.661l30.085-0.913c1.37,0,3.429,0.327,4.723,1.251
				l3.904,2.657c0.115,0.082,0.176,0.08,0.219,0.069c0.094-0.022,0.184-0.098,0.247-0.212l3.207-5.808
				c0.826-1.484,1.979-1.573,2.439-1.537c0.456,0.032,1.581,0.275,2.183,1.84l3.441,8.94l2.332-3.255
				c0.634-0.888,1.56-1.364,2.524-1.337c0.969,0.039,1.847,0.598,2.408,1.533l0.356,0.593l3.423-9.585
				c0.599-1.68,1.655-1.865,2.212-1.836c0.57,0.035,1.582,0.355,1.969,2.096l1.985,8.936l2.521-15.129
				c0.294-1.76,1.188-2.156,1.887-2.178c0.689-0.003,1.616,0.318,2.019,2.056l2.214,9.703c0.123,0.531,0.752,0.955,1.032,0.955
				h1.863c0.87,0,1.575,0.631,1.575,1.5s-0.705,1.5-1.575,1.5H98.36c-2.03,0-3.71-1.632-4.103-3.328l-0.915-3.96l-2.537,15.168
				c-0.295,1.765-1.19,2.121-1.889,2.121C88.9,126.5,88.882,126.5,88.864,126.5z"/>
		</g>
	</g>
	<g>
		<g opacity="0.3">
			<path fill="#010101" d="M197.655,129.5c-0.012,0-0.023,0-0.034,0c-0.698,0-1.606-0.228-1.963-1.948l-2.305-11.181
				c-0.083-0.397-0.577-0.87-0.98-0.87h-1.863c-0.87,0-1.575-0.631-1.575-1.5s0.705-1.5,1.575-1.5h1.863
				c1.894,0,3.679,1.529,4.064,3.385l1.313,6.368l5.014-20.554c0.426-1.746,1.446-2.026,2.016-2.043
				c0.589,0,1.606,0.216,2.135,1.933l2.426,7.887l1.502-3.004c0.807-1.613,1.95-1.637,2.404-1.575
				c0.454,0.064,1.546,0.403,1.878,2.176l2.13,11.36l0.743-0.929c0.658-0.821,1.597-1.279,2.561-1.245
				c0.97,0.03,1.873,0.538,2.478,1.396l0.356,0.503l2.319-6.67c0.381-1.096,1.151-1.803,2.11-1.938
				c0.956-0.134,1.894,0.331,2.564,1.28l3.877,5.493c0.095,0.135,0.219,0.18,0.307,0.194c0.086,0.016,0.219,0.009,0.352-0.09
				l2.94-2.204c1.196-0.898,3.227-1.575,4.724-1.575l27.119,0.913c0.365,0,0.661,0.296,0.661,0.661s-0.296,0.661-0.661,0.661
				l-27.119,0.913c-0.809,0-2.187,0.459-2.834,0.945l-2.94,2.204c-0.789,0.593-1.761,0.834-2.732,0.682
				c-0.971-0.153-1.82-0.682-2.39-1.489l-3.321-4.705l-2.32,6.671c-0.381,1.096-1.151,1.803-2.11,1.938
				c-0.953,0.134-1.893-0.33-2.564-1.28l-0.912-1.295c-0.001-0.001-0.003-0.002-0.006,0.001l-1.575,1.969
				c-1.059,1.323-2.207,1.205-2.652,1.096c-0.444-0.112-1.512-0.55-1.824-2.213l-1.9-10.132l-1.167,2.333
				c-0.78,1.558-1.926,1.642-2.383,1.602c-0.457-0.038-1.574-0.306-2.087-1.972l-1.9-6.178l-5.314,21.642
				C199.245,129.299,198.349,129.5,197.655,129.5z"/>
		</g>
		<g>
			<path fill="#205156" d="M197.655,128.5c-0.012,0-0.023,0-0.034,0c-0.698,0-1.606-0.228-1.963-1.948l-2.305-11.181
				c-0.083-0.397-0.577-0.87-0.98-0.87h-1.863c-0.87,0-1.575-0.631-1.575-1.5s0.705-1.5,1.575-1.5h1.863
				c1.894,0,3.679,1.529,4.064,3.385l1.313,6.368l5.014-20.554c0.426-1.746,1.446-2.026,2.016-2.043
				c0.589,0,1.606,0.216,2.135,1.933l2.426,7.887l1.502-3.004c0.807-1.613,1.95-1.637,2.404-1.575
				c0.454,0.064,1.546,0.403,1.878,2.176l2.13,11.36l0.743-0.929c0.658-0.821,1.597-1.279,2.561-1.245
				c0.97,0.03,1.873,0.538,2.478,1.396l0.356,0.503l2.319-6.67c0.381-1.096,1.151-1.803,2.11-1.938
				c0.956-0.134,1.894,0.331,2.564,1.28l3.877,5.493c0.095,0.135,0.219,0.18,0.307,0.194c0.086,0.016,0.219,0.009,0.352-0.09
				l2.94-2.204c1.196-0.898,3.227-1.575,4.724-1.575l27.119,0.913c0.365,0,0.661,0.296,0.661,0.661s-0.296,0.661-0.661,0.661
				l-27.119,0.913c-0.809,0-2.187,0.459-2.834,0.945l-2.94,2.204c-0.789,0.593-1.761,0.834-2.732,0.682
				c-0.971-0.153-1.82-0.682-2.39-1.489l-3.321-4.705l-2.32,6.671c-0.381,1.096-1.151,1.803-2.11,1.938
				c-0.953,0.134-1.893-0.33-2.564-1.28l-0.912-1.295c-0.001-0.001-0.003-0.002-0.006,0.001l-1.575,1.969
				c-1.059,1.323-2.207,1.205-2.652,1.096c-0.444-0.112-1.512-0.55-1.824-2.213l-1.9-10.132l-1.167,2.333
				c-0.78,1.558-1.926,1.642-2.383,1.602c-0.457-0.038-1.574-0.306-2.087-1.972l-1.9-6.178l-5.314,21.642
				C199.245,128.299,198.349,128.5,197.655,128.5z"/>
		</g>
	</g>
	<g>
		<g opacity="0.3">
			<polygon fill="#010101" points="170.399,103.317 165.468,102.501 160.538,101.686 166.012,97.533 171.487,93.381 170.943,98.349 
							"/>
			<polygon fill="#010101" points="121.447,131.127 126.388,131.875 131.329,132.623 125.912,136.85 120.495,141.077 
				120.971,136.102 			"/>
			<path fill="#010101" d="M171.578,109.24c-0.903-0.322-3.23-0.787-5.354,1.821c-1.263,1.551-2.034,3.914-2.848,6.416
				c-0.638,1.957-1.754,5.384-2.829,6.236c-1.346-2.58-2.223-11.934-2.661-16.601c-0.251-2.68-0.489-5.212-0.762-7.057
				c-0.298-2.012-0.749-5.052-3.462-5.052c-2.962,0-3.787,2.999-6.475,14.464c-0.374,1.596-0.814,3.473-1.226,5.097
				c-1.014-1.773-2.108-3.237-3.948-3.237c-2.693,0-3.087,2.413-3.95,7.702c-0.256,1.569-0.673,4.124-1.166,6.192
				c-0.348-1.986-0.649-4.437-0.883-6.347c-1.054-8.584-1.75-14.254-5.89-14.254c-3.939,0-5.191,4.757-6.517,9.793
				c-0.504,1.916-1.337,5.079-2.003,5.874c-0.135,0.037-0.231,0.007-0.381-0.092c-0.706-0.466-1.467-1.989-1.467-3.637
				c0-14.099,11.47-25.57,25.57-25.57c7.978,0,14.911,2.955,19.023,8.108l3.972-3.169c-5.081-6.368-13.462-10.02-22.995-10.02
				c-16.901,0-30.651,13.75-30.651,30.651c0,3.229,1.505,6.394,3.746,7.875c1.627,1.075,3.512,1.245,5.313,0.479
				c2.662-1.134,3.646-4.875,4.786-9.206c0.322-1.224,0.773-2.936,1.238-4.265c0.503,2.276,0.924,5.706,1.212,8.053
				c1.01,8.23,1.678,13.668,5.638,13.668c4.296,0,5.352-6.467,6.469-13.313c0.002-0.014,0.005-0.029,0.007-0.043
				c0.928,1.482,1.984,2.609,3.612,2.609c2.675,0,3.15-2.03,5.437-11.785c0.207-0.882,0.446-1.902,0.7-2.962
				c1.241,13.224,2.263,21.324,7.238,21.324c4.895,0,6.691-5.51,8.133-9.938c0.594-1.823,1.266-3.884,1.919-4.732
				c0.369,0.511,0.771,1.478,0.771,2.239c0,14.099-11.47,25.57-25.569,25.57c-6.749,0-13.115-2.607-17.924-7.34l-3.564,3.622
				c5.766,5.674,13.397,8.799,21.488,8.799c16.901,0,30.65-13.75,30.65-30.651C175.976,113.791,174.294,110.207,171.578,109.24z"/>
		</g>
		<g>
			<polygon fill="#14793D" points="170.399,101.317 165.468,100.501 160.538,99.686 166.012,95.533 171.487,91.381 170.943,96.349 
							"/>
			<polygon fill="#14793D" points="121.447,129.127 126.388,129.875 131.329,130.623 125.912,134.85 120.495,139.077 
				120.971,134.102 			"/>
			<path fill="#14793D" d="M171.578,107.24c-0.903-0.322-3.23-0.787-5.354,1.821c-1.263,1.551-2.034,3.914-2.848,6.416
				c-0.638,1.957-1.754,5.384-2.829,6.236c-1.346-2.58-2.223-11.934-2.661-16.601c-0.251-2.68-0.489-5.212-0.762-7.057
				c-0.298-2.012-0.749-5.052-3.462-5.052c-2.962,0-3.787,2.999-6.475,14.464c-0.374,1.596-0.814,3.473-1.226,5.097
				c-1.014-1.773-2.108-3.237-3.948-3.237c-2.693,0-3.087,2.413-3.95,7.702c-0.256,1.569-0.673,4.124-1.166,6.192
				c-0.348-1.986-0.649-4.437-0.883-6.347c-1.054-8.584-1.75-14.254-5.89-14.254c-3.939,0-5.191,4.757-6.517,9.793
				c-0.504,1.916-1.337,5.079-2.003,5.874c-0.135,0.037-0.231,0.007-0.381-0.092c-0.706-0.466-1.467-1.989-1.467-3.637
				c0-14.099,11.47-25.57,25.57-25.57c7.978,0,14.911,2.955,19.023,8.108l3.972-3.169c-5.081-6.368-13.462-10.02-22.995-10.02
				c-16.901,0-30.651,13.75-30.651,30.651c0,3.229,1.505,6.394,3.746,7.875c1.627,1.075,3.512,1.245,5.313,0.479
				c2.662-1.134,3.646-4.875,4.786-9.206c0.322-1.224,0.773-2.936,1.238-4.265c0.503,2.276,0.924,5.706,1.212,8.053
				c1.01,8.23,1.678,13.668,5.638,13.668c4.296,0,5.352-6.467,6.469-13.313c0.002-0.014,0.005-0.029,0.007-0.043
				c0.928,1.482,1.984,2.609,3.612,2.609c2.675,0,3.15-2.03,5.437-11.785c0.207-0.882,0.446-1.902,0.7-2.962
				c1.241,13.224,2.263,21.324,7.238,21.324c4.895,0,6.691-5.51,8.133-9.938c0.594-1.823,1.266-3.884,1.919-4.732
				c0.369,0.511,0.771,1.478,0.771,2.239c0,14.099-11.47,25.57-25.569,25.57c-6.749,0-13.115-2.607-17.924-7.34l-3.564,3.622
				c5.766,5.674,13.397,8.799,21.488,8.799c16.901,0,30.65-13.75,30.65-30.651C175.976,111.791,174.294,108.207,171.578,107.24z"/>
		</g>
	</g>
</g>
</svg>
